<?xml version="1.0" encoding="UTF-8" standalone="no"?>
<!-- Created with Inkscape (http://www.inkscape.org/) -->

<svg
   xmlns:dc="http://purl.org/dc/elements/1.1/"
   xmlns:cc="http://creativecommons.org/ns#"
   xmlns:rdf="http://www.w3.org/1999/02/22-rdf-syntax-ns#"
   xmlns:svg="http://www.w3.org/2000/svg"
   xmlns="http://www.w3.org/2000/svg"
   xmlns:sodipodi="http://sodipodi.sourceforge.net/DTD/sodipodi-0.dtd"
   xmlns:inkscape="http://www.inkscape.org/namespaces/inkscape"
   width="112.47883mm"
   height="109.66368mm"
   viewBox="0 0 112.47883 109.66368"
   version="1.1"
   id="svg8"
   inkscape:version="0.92.2 (5c3e80d, 2017-08-06)"
   sodipodi:docname="logo_gray.svg">
  <defs
     id="defs2">
    <pattern
       y="0"
       x="0"
       height="6"
       width="6"
       patternUnits="userSpaceOnUse"
       id="EMFhbasepattern" />
  </defs>
  <sodipodi:namedview
     id="base"
     pagecolor="#ffffff"
     bordercolor="#666666"
     borderopacity="1.0"
     inkscape:pageopacity="0.0"
     inkscape:pageshadow="2"
     inkscape:zoom="0.35"
     inkscape:cx="36.548841"
     inkscape:cy="234.49574"
     inkscape:document-units="mm"
     inkscape:current-layer="layer1"
     showgrid="false"
     fit-margin-top="0"
     fit-margin-left="0"
     fit-margin-right="0"
     fit-margin-bottom="0"
     inkscape:window-width="1920"
     inkscape:window-height="1017"
     inkscape:window-x="1672"
     inkscape:window-y="-8"
     inkscape:window-maximized="1" />
  <metadata
     id="metadata5">
    <rdf:RDF>
      <cc:Work
         rdf:about="">
        <dc:format>image/svg+xml</dc:format>
        <dc:type
           rdf:resource="http://purl.org/dc/dcmitype/StillImage" />
        <dc:title></dc:title>
      </cc:Work>
    </rdf:RDF>
  </metadata>
  <g
     inkscape:label="Layer 1"
     inkscape:groupmode="layer"
     id="layer1"
     transform="translate(-96.163119,-131.45142)">
    <path
       id="path834"
       d="m 208.64195,186.29384 c 0,30.28928 -25.18814,54.82126 -56.23941,54.82126 -31.05127,0 -56.239421,-24.53198 -56.239421,-54.82126 0,-30.28927 25.188151,-54.84242 56.239421,-54.84242 31.05127,0 56.23941,24.55315 56.23941,54.84242 z"
       style="fill:#dddddd;fill-opacity:1;fill-rule:nonzero;stroke:none;stroke-width:0.26458332"
       inkscape:connector-curvature="0" />
    <path
       id="path836"
       d="m 132.35785,180.60005 c 0,4.14864 -3.21731,7.53528 -7.19661,7.53528 -3.97931,0 -7.21778,-3.38664 -7.21778,-7.53528 0,-4.1698 3.23847,-7.53528 7.21778,-7.53528 3.9793,0 7.19661,3.36548 7.19661,7.53528 z"
       style="fill:none;stroke:#000080;stroke-width:4.00047064px;stroke-linecap:butt;stroke-linejoin:round;stroke-miterlimit:4;stroke-dasharray:none;stroke-opacity:1"
       inkscape:connector-curvature="0" />
    <path
       id="path838"
       d="m 132.52718,180.53655 5.67263,-8.67827 5.94779,15.30339 8.0221,-14.56256 5.29163,14.18156 7.93744,-13.80056 4.63547,8.12794"
       style="fill:none;stroke:#000080;stroke-width:4.00047064px;stroke-linecap:round;stroke-linejoin:miter;stroke-miterlimit:4;stroke-dasharray:none;stroke-opacity:1"
       inkscape:connector-curvature="0" />
    <path
       id="path840"
       d="m 134.284,204.8992 c -0.1905,-7.28127 -1.94732,-13.41956 -6.22295,-17.29303"
       style="fill:none;stroke:#000080;stroke-width:4.00047064px;stroke-linecap:round;stroke-linejoin:miter;stroke-miterlimit:4;stroke-dasharray:none;stroke-opacity:1"
       inkscape:connector-curvature="0" />
    <path
       id="path842"
       d="m 170.09774,180.34605 c 0,4.1698 3.23847,7.53528 7.21778,7.53528 3.9793,0 7.19661,-3.36548 7.19661,-7.53528 0,-4.1698 -3.21731,-7.53527 -7.19661,-7.53527 -3.97931,0 -7.21778,3.36547 -7.21778,7.53527 z"
       style="fill:none;stroke:#000080;stroke-width:4.00047064px;stroke-linecap:butt;stroke-linejoin:round;stroke-miterlimit:4;stroke-dasharray:none;stroke-opacity:1"
       inkscape:connector-curvature="0" />
    <path
       id="path844"
       d="m 168.17158,204.64521 c 0.1905,-7.26012 1.96849,-13.41957 6.22296,-17.27188"
       style="fill:none;stroke:#000080;stroke-width:4.00047064px;stroke-linecap:round;stroke-linejoin:miter;stroke-miterlimit:4;stroke-dasharray:none;stroke-opacity:1"
       inkscape:connector-curvature="0" />
  </g>
</svg>
