<?xml version="1.0" encoding="UTF-8"?>
<svg width="46.719mm" height="26.109mm" version="1.1" viewBox="0 0 46.719 26.109" xmlns="http://www.w3.org/2000/svg">
 <g transform="translate(-34.849 -66.987)">
  <path d="m69.422 91.59c0.13003-4.8201 1.3028-8.8937 4.1231-11.447m-2.8395-4.6484a4.7687 4.9877 0 0 0 4.7687 4.9877 4.7687 4.9877 0 0 0 4.7687-4.9877 4.7687 4.9877 0 0 0-4.7687-4.9877 4.7687 4.9877 0 0 0-4.7687 4.9877zm-23.712 16.259c-0.13002-4.8201-1.3028-8.8937-4.1231-11.447m2.9508-4.6797 3.7538-5.7559 3.9415 10.135 5.3179-9.6348 3.5036 9.3846 5.2554-9.1343 3.0656 5.3805m-24.949-0.34409a4.7687 4.9877 0 0 1-4.7687 4.9877 4.7687 4.9877 0 0 1-4.7687-4.9877 4.7687 4.9877 0 0 1 4.7687-4.9877 4.7687 4.9877 0 0 1 4.7687 4.9877z" fill="none" stroke="#ddd" stroke-linecap="round" stroke-width="2.6484"/>
 </g>
</svg>
