<?xml version="1.0" encoding="UTF-8"?>
<svg width="112.48mm" height="109.66mm" version="1.1" viewBox="0 0 112.48 109.66" xmlns="http://www.w3.org/2000/svg"><g transform="translate(-96.163 -131.45)"><path d="m208.64 186.29c0 30.289-25.188 54.821-56.239 54.821s-56.239-24.532-56.239-54.821 25.188-54.842 56.239-54.842 56.239 24.553 56.239 54.842z" fill="#ddd"/><g fill="none" stroke="currentColor" stroke-width="4.0005px"><path d="m132.36 180.6c0 4.1486-3.2173 7.5353-7.1966 7.5353s-7.2178-3.3866-7.2178-7.5353c0-4.1698 3.2385-7.5353 7.2178-7.5353s7.1966 3.3655 7.1966 7.5353z" stroke-linejoin="round"/><path d="m132.53 180.54 5.6726-8.6783 5.9478 15.303 8.0221-14.563 5.2916 14.182 7.9374-13.801 4.6355 8.1279" stroke-linecap="round"/><path d="m134.28 204.9c-0.1905-7.2813-1.9473-13.42-6.223-17.293" stroke-linecap="round"/><path d="m170.1 180.35c0 4.1698 3.2385 7.5353 7.2178 7.5353s7.1966-3.3655 7.1966-7.5353-3.2173-7.5353-7.1966-7.5353-7.2178 3.3655-7.2178 7.5353z" stroke-linejoin="round"/><path d="m168.17 204.65c0.1905-7.2601 1.9685-13.42 6.223-17.272" stroke-linecap="round"/></g></g></svg>
